<svg width="111" height="111" viewBox="0 0 111 111" fill="none" xmlns="http://www.w3.org/2000/svg">
<path d="M99.293 7.17596C98.9895 7.28436 89.0168 17.1053 77.1363 29.0074L55.5 50.6221L33.8854 29.0074C10.3629 5.50662 11.8588 6.87245 9.82091 7.26268C8.75861 7.4578 7.45783 8.75858 7.26271 9.82088C6.87248 11.8588 5.50666 10.3629 29.0074 33.8637L50.6221 55.5L28.899 77.223C5.33322 100.832 6.65568 99.358 7.02423 101.374C7.21935 102.393 8.60685 103.781 9.6258 103.976C11.642 104.344 10.1678 105.667 33.7553 82.101L55.5 60.3779L77.2231 82.101C100.854 105.71 99.358 104.344 101.396 103.954C102.458 103.759 103.759 102.458 103.954 101.396C104.344 99.358 105.71 100.854 82.101 77.2447L60.3779 55.5L82.101 33.7769C105.645 10.2111 104.344 11.642 103.976 9.64745C103.607 7.67459 101.222 6.41717 99.293 7.17596Z" fill="white"/>
</svg>
