<svg width="181" height="136" viewBox="0 0 181 136" fill="none" xmlns="http://www.w3.org/2000/svg">
<path d="M12.7804 0.598541C6.83439 2.18181 2.19017 6.93158 0.606915 12.9479C-0.202305 15.9737 -0.202305 119.202 0.606915 122.228C2.19017 128.315 6.86957 133.029 12.9211 134.612C14.7507 135.07 23.7928 135.14 90.1489 135.14C172.126 135.14 166.99 135.281 171.141 133.17C173.639 131.903 176.735 128.842 178.072 126.379C180.359 122.087 180.219 125.5 180.219 67.5879C180.219 21.4623 180.148 14.7071 179.691 12.8776C178.108 6.82602 173.393 2.14662 167.306 0.56337C164.316 -0.210678 15.7006 -0.175491 12.7804 0.598541ZM164.984 11.5758C165.23 11.7165 151.333 24.0307 127.866 44.3316C91.6969 75.7153 90.3248 76.8411 89.5508 76.3486C89.1285 76.0671 72.1349 61.4308 51.8341 43.839C29.1759 24.1715 15.1025 11.7165 15.3488 11.5758C15.8765 11.224 164.421 11.224 164.984 11.5758ZM88.1434 89.7183C89.4804 90.2812 91.908 90.0701 93.0339 89.2961C93.4913 89.0146 110.731 74.132 131.419 56.1884L168.96 23.6437L168.889 71.9858C168.784 120.187 168.784 120.328 168.045 121.278C167.658 121.806 166.884 122.58 166.356 122.967L165.406 123.706H90.1489H14.8914L13.9415 122.967C13.4137 122.58 12.6397 121.806 12.2526 121.278C11.5138 120.328 11.5138 120.187 11.4082 71.9506L11.3379 23.6085L49.1601 56.4347C69.9887 74.4487 87.5101 89.4368 88.1434 89.7183Z" fill="#B44CCF"/>
</svg>
