<svg width="206" height="351" viewBox="0 0 206 351" fill="none" xmlns="http://www.w3.org/2000/svg">
<path d="M14.5 0.449066C8.48248 2.33408 2.82749 7.91656 1.0875 13.789C0.145 16.979 0 37.3515 0 175.246C0 313.141 0.145 333.513 1.0875 336.703C2.3925 341.053 6.88749 346.491 11.165 348.738L14.1375 350.333H102.95H191.762L194.735 348.738C199.012 346.491 203.507 341.053 204.812 336.703C205.755 333.513 205.9 313.141 205.9 175.246C205.9 37.3515 205.755 16.979 204.812 13.789C203.507 9.43906 199.012 4.00156 194.735 1.75406L191.762 0.159058L104.037 0.0140686C55.8249 -0.0584412 15.515 0.159058 14.5 0.449066ZM191.037 11.3965C195.242 14.0065 195.75 16.1815 195.75 31.2615V44.7465H102.95H10.15V31.1165C10.15 16.109 10.585 14.224 14.8625 11.3965C16.965 9.94653 18.6325 9.94653 102.877 9.94653C187.63 9.94653 188.717 9.94653 191.037 11.3965ZM195.75 165.096V275.296H102.95H10.15V165.096V54.8965H102.95H195.75V165.096ZM195.75 309.081C195.75 335.326 195.605 336.268 191.037 339.096C188.717 340.546 187.63 340.546 102.95 340.546C18.27 340.546 17.1825 340.546 14.8625 339.096C10.295 336.268 10.15 335.326 10.15 309.081V285.446H102.95H195.75V309.081Z" fill="#B44CCF"/>
<path d="M95.3372 296.611C91.3497 298.424 87.3622 302.484 85.8397 306.181C85.2597 307.559 84.8247 310.676 84.8247 313.286C84.8247 321.841 90.3347 328.873 98.8172 331.193C107.082 333.368 116.435 328.438 119.987 320.028C121.365 316.766 121.437 309.371 120.06 306.181C117.377 299.729 110.055 294.871 102.95 294.871C100.267 294.871 97.7297 295.451 95.3372 296.611ZM107.155 306.036C110.562 307.776 112.23 312.416 110.707 316.041C109.04 319.884 106.937 321.333 102.95 321.333C98.7447 321.333 96.1347 319.304 94.9022 315.171C92.8722 308.356 100.557 302.629 107.155 306.036Z" fill="#B44CCF"/>
</svg>
